<svg id="Capa_1" enable-background="new 0 0 512 512" height="512" viewBox="0 0 512 512" width="512" xmlns="http://www.w3.org/2000/svg"><g><g><path d="m413.136 504.684h-314.272c-13.002 0-23.542-10.54-23.542-23.542v-450.283c0-13.002 10.54-23.542 23.542-23.542h314.272c13.002 0 23.542 10.54 23.542 23.542v450.283c0 13.002-10.54 23.542-23.542 23.542z" fill="#407093"/></g><path d="m415.633 7.449c.087.821.133 1.653.133 2.497v450.283c0 13.002-10.54 23.542-23.542 23.542h-314.273c-.844 0-1.676-.046-2.497-.133 1.247 11.828 11.251 21.046 23.41 21.046h314.272c13.002 0 23.542-10.54 23.542-23.542v-450.283c0-12.159-9.217-22.163-21.045-23.41z" fill="#365e7d"/><g><path d="m208.446 55.063-77.382 77.382-30.419-30.419c-7.81-7.81-7.81-20.474 0-28.284l49.098-49.098c7.81-7.81 20.474-7.81 28.284 0z" fill="#365e7d"/></g><g><path d="m178.027 24.644c-7.81-7.81-20.474-7.811-28.284 0l-14.983 14.982c7.619-7.619 19.972-7.619 27.591 0l30.766 30.766 15.329-15.329z" fill="#2b4d66"/></g><g><path d="m195.317 284.529v-104.53h-78.415v249.344c0 20.472 16.596 37.068 37.068 37.068h204.06c20.472 0 37.068-16.596 37.068-37.068v-125.305c0-10.775-8.735-19.51-19.51-19.51h-180.271z" fill="#365e7d"/></g><g><g><path d="m375.589 284.529h-10.385v114.92c0 20.472-16.596 37.069-37.069 37.069h-204.06c-2.247 0-4.443-.211-6.58-.594 3.107 17.332 18.249 30.489 36.474 30.489h204.06c20.472 0 37.068-16.596 37.068-37.068v-125.307c.001-10.775-8.734-19.509-19.508-19.509z" fill="#2b4d66"/></g></g><g><path d="m262.935 421.333c-29.012-6.795-51.261-31.153-54.892-61.255-.596-4.941-4.716-8.694-9.693-8.694h-48.307c-5.387 0-9.755 4.367-9.755 9.755v95.518c0 5.387 4.367 9.755 9.755 9.755h110.657c5.387 0 9.755-4.367 9.755-9.755v-25.837c0-4.525-3.114-8.455-7.52-9.487z" fill="#efecef"/></g><g><g><path d="m262.935 421.333c-5.121-1.199-10.026-2.957-14.66-5.185v18.329c0 5.387-4.367 9.755-9.755 9.755h-98.232v12.425c0 5.387 4.367 9.755 9.755 9.755h110.657c5.387 0 9.755-4.367 9.755-9.755v-25.837c0-4.525-3.114-8.455-7.52-9.487z" fill="#dddaec"/></g></g><g><path d="m125.264 49.492c-5.749 5.749-6.866 14.664-2.713 21.654l23.572 39.676 40.47-40.47-39.676-23.572c-6.988-4.154-15.904-3.037-21.653 2.712z" fill="#dddaec"/></g><g><path d="m129.239 59.625 42.707 25.373 14.647-14.647-39.676-23.572c-6.989-4.153-15.905-3.035-21.654 2.713-2.122 2.122-3.608 4.677-4.436 7.407 2.904.271 5.779 1.161 8.412 2.726z" fill="#d5c6e4"/></g><g><path d="m386.736 49.492c5.749 5.749 6.866 14.664 2.713 21.654l-23.572 39.676-40.47-40.47 39.676-23.572c6.988-4.154 15.904-3.037 21.653 2.712z" fill="#dddaec"/></g><g><path d="m386.736 49.492c-2.43-2.431-5.429-4.023-8.607-4.749-.176 3.175-1.089 6.337-2.798 9.213l-24.717 41.602 15.263 15.263 23.572-39.676c4.153-6.989 3.035-15.905-2.713-21.653z" fill="#d5c6e4"/></g><g><path d="m237.514 313.041h-86.842c-8.284 0-15-6.716-15-15v-57.796h101.842z" fill="#d5c6e4"/></g><g><path d="m135.673 282.387v15.654c0 8.284 6.716 15 15 15h86.842v-16.085h-87.273c-8.047 0-14.569-6.523-14.569-14.569z" fill="#beb9dd"/></g><g><g><circle cx="256" cy="179.999" fill="#efecef" r="139.098"/></g><g><path d="m340.888 69.81c18.122 23.489 28.909 52.927 28.909 84.888 0 76.822-62.276 139.098-139.098 139.098-31.962 0-61.4-10.787-84.888-28.909 25.436 32.968 65.329 54.21 110.189 54.21 76.822 0 139.098-62.276 139.098-139.098 0-44.86-21.242-84.753-54.21-110.189z" fill="#dddaec"/></g><g><path d="m256 119.092c-33.638 0-60.907 27.269-60.907 60.907s27.269 60.907 60.907 60.907 60.907-27.269 60.907-60.907-27.269-60.907-60.907-60.907zm0 91.361c-16.819 0-30.453-13.634-30.453-30.453s13.634-30.453 30.453-30.453 30.453 13.634 30.453 30.453-13.634 30.453-30.453 30.453z" fill="#dddaec"/></g><g><g><path d="m290.634 129.907c6.813 9.835 10.814 21.764 10.814 34.634 0 33.638-27.269 60.907-60.907 60.907-12.87 0-24.799-4.002-34.634-10.814 10.994 15.871 29.324 26.273 50.093 26.273 33.638 0 60.907-27.269 60.907-60.907 0-20.769-10.403-39.099-26.273-50.093z" fill="#d5c6e4"/></g></g></g><g><path d="m300.695 351.384h81.356v29.444h-81.356z" fill="#efecef"/></g><g><path d="m300.695 369.213h81.356v11.614h-81.356z" fill="#dddaec"/></g><g><path d="m303.104 393.328h-12.864c-2.209 0-4-1.791-4-4v-33.944c0-2.209 1.791-4 4-4h33.944c2.209 0 4 1.791 4 4v12.864c0 13.851-11.229 25.08-25.08 25.08z" fill="#d5c6e4"/></g><path d="m324.184 351.384h-8.203v4.661c0 13.852-11.229 25.08-25.08 25.08h-4.661v8.203c0 2.209 1.791 4 4 4h12.864c13.852 0 25.08-11.229 25.08-25.08v-12.864c0-2.21-1.791-4-4-4z" fill="#beb9dd"/><g><path d="m378.234 393.328h12.864c2.209 0 4-1.791 4-4v-33.944c0-2.209-1.791-4-4-4h-33.944c-2.209 0-4 1.791-4 4v12.864c0 13.851 11.229 25.08 25.08 25.08z" fill="#d5c6e4"/></g><path d="m391.098 351.384h-9.05v24.894c0 2.209-1.791 4-4 4h-12.864c-3.543 0-6.911-.738-9.967-2.063 3.856 8.892 12.708 15.114 23.017 15.114h12.864c2.209 0 4-1.791 4-4v-33.944c0-2.211-1.791-4.001-4-4.001z" fill="#beb9dd"/><g><path d="m211.805 371.868.824 4.572c1.202 6.665 5.579 12.325 11.728 15.164l16.723 7.722c11.24 5.19 24.496-.548 28.403-12.296l43.796-131.684c1.444-4.343-1.176-8.984-5.641-9.991-3.34-.753-6.779.779-8.453 3.766l-43.72 78.016c-7.263 12.961-19.137 22.715-33.261 27.324-7.327 2.39-11.766 9.821-10.399 17.407z" fill="#d5c6e4"/></g><path d="m307.639 245.354c-3.34-.753-6.779.779-8.453 3.766l-5.615 10.019-42.535 127.89c-1.831 5.507-5.717 9.693-10.485 12.052l.529.244c11.24 5.19 24.496-.548 28.403-12.296l43.797-131.684c1.445-4.343-1.176-8.984-5.641-9.991z" fill="#beb9dd"/><g><path d="m350.582 332.212c-8.076 0-14.622-6.547-14.622-14.622v-31.608c0-8.076 6.547-14.622 14.622-14.622 8.076 0 14.622 6.547 14.622 14.622v31.608c0 8.076-6.547 14.622-14.622 14.622z" fill="#e28086"/></g><g><path d="m351.778 271.42c.282 1.134.448 2.314.448 3.535v31.608c0 8.076-6.547 14.622-14.622 14.622-.404 0-.801-.028-1.196-.06 1.583 6.364 7.319 11.087 14.174 11.087 8.076 0 14.622-6.547 14.622-14.622v-31.608c0-7.672-5.912-13.952-13.426-14.562z" fill="#dd636e"/></g><g><path d="m413.714 0h-315.427c-16.697 0-30.282 13.584-30.282 30.282v451.437c0 16.697 13.585 30.281 30.282 30.281h208.925c4.041 0 7.316-3.276 7.316-7.316 0-4.041-3.275-7.316-7.316-7.316h-208.925c-8.629 0-15.649-7.02-15.649-15.649v-451.437c0-8.629 7.02-15.649 15.649-15.649h52.599c-2.141 1.185-4.156 2.677-5.97 4.492l-49.791 49.79c-10.46 10.459-10.46 27.478 0 37.938l23.217 23.217c-1.822 5.002-3.375 10.107-4.634 15.295-.953 3.927 1.458 7.882 5.385 8.835 3.925.952 7.882-1.458 8.835-5.385 14.368-59.231 67.034-100.598 128.072-100.598 72.665 0 131.782 59.117 131.782 131.782 0 31.203-10.992 61.189-31.029 84.934-1.959-.576-4.029-.89-6.172-.89-12.096 0-21.938 9.842-21.938 21.938v3.96c-7.343 4.863-15.113 8.954-23.229 12.238l14.809-44.527c1.338-4.027.91-8.457-1.176-12.153-2.087-3.695-5.659-6.35-9.799-7.284-6.447-1.453-13.21 1.558-16.444 7.326l-37.117 66.234c-71.277-.17-130.214-58.173-131.448-129.448-.002-.102-.015-.2-.02-.301v-2.029c0-4.041-3.276-7.316-7.316-7.316s-7.316 3.276-7.316 7.316v249.344c0 20.998 14.662 38.625 34.283 43.211 1.918.748 10.4 1.174 14.034 1.174h200.126c24.474 0 44.385-19.911 44.385-44.385v-125.303c0-14.792-12.034-26.826-26.826-26.826h-4.903c-.567-1.295-1.255-2.525-2.051-3.675 21.822-26.251 33.779-59.234 33.779-93.538 0-28.729-8.324-55.549-22.677-78.184l16.002-26.933c5.866-9.873 4.292-22.442-3.831-30.564s-20.69-9.696-30.564-3.83l-26.863 15.96c-22.696-14.469-49.626-22.863-78.481-22.863-17.349 0-34.166 2.961-49.984 8.702l-23.163-23.163c-1.815-1.815-3.829-3.307-5.97-4.492h236.831c8.629 0 15.649 7.02 15.649 15.649v451.437c0 8.629-7.02 15.649-15.649 15.649h-71.314c-4.041 0-7.316 3.276-7.316 7.316 0 4.041 3.275 7.316 7.316 7.316h71.314c16.697 0 30.281-13.584 30.281-30.282v-451.435c0-16.698-13.585-30.282-30.281-30.282zm-63.133 278.676c4.029 0 7.307 3.277 7.307 7.306v31.608c0 4.029-3.278 7.306-7.307 7.306s-7.306-3.277-7.306-7.306v-31.608c.001-4.029 3.278-7.306 7.306-7.306zm-45.013-25.978c.23-.469.947-.095.77.339l-43.797 131.684c-1.223 3.679-3.856 6.554-7.415 8.094-3.558 1.541-7.457 1.494-10.978-.131l-16.723-7.722c-3.978-1.837-6.817-5.508-7.595-9.821l-.824-4.572c-.715-3.968 1.636-7.904 5.469-9.155 15.916-5.193 29.189-16.097 37.373-30.702zm-42.43 203.958c0 1.345-1.094 2.439-2.439 2.439 0 0-110.368-.177-112.117-.498-.59-.446-.978-1.146-.978-1.941v-95.518c0-1.345 1.094-2.439 2.439-2.439h48.308c1.25 0 2.272.948 2.429 2.255 3.96 32.829 28.268 59.956 60.487 67.502 1.101.258 1.871 1.23 1.871 2.363zm-82.257-150.931h-30.639c-3.999 0-7.253-3.253-7.253-7.252v-25.373c3.23 3.907 6.672 7.675 10.333 11.277 8.417 8.28 17.67 15.418 27.559 21.348zm-56.663 123.618v-185.392c1.295 2.665 2.68 5.287 4.139 7.872v46.649c0 12.067 9.818 21.885 21.885 21.885h63.884c10.77 3.2 21.959 5.155 33.386 5.806-6.446 10.079-16.131 17.607-27.577 21.342-2.792.911-5.295 2.339-7.448 4.135-3.092-4.593-8.305-7.573-14.136-7.573h-48.308c-9.413 0-17.071 7.658-17.071 17.071v89.262c-5.405-5.39-8.754-12.84-8.754-21.057zm233.812 29.752h-80.454c.115-.799.195-1.609.195-2.439v-25.836c0-7.964-5.415-14.795-13.167-16.61-5.355-1.254-10.436-3.182-15.169-5.668.117.001.234.009.35.009 3.798 0 7.599-.768 11.155-2.308 7.324-3.171 12.968-9.332 15.487-16.905l2.498-7.51v7.598c0 6.186 5.033 11.218 11.218 11.218h13.577c10.278 0 19.428-4.909 25.241-12.5h23.419c5.813 7.592 14.962 12.5 25.241 12.5h10.163v28.699c-.002 16.405-13.349 29.752-29.754 29.752zm-12.192-100.396s.12 13.294.343 14.812h-11.025c.224-1.518.343-14.812.343-14.812zm41.944 27.313h-10.162c-9.456 0-17.149-7.693-17.149-17.15v-10.163h27.312v27.313zm-66.914-27.313v10.163c0 9.456-7.693 17.15-17.149 17.15h-10.163v-27.312h27.312zm66.914-54.661v40.029h-96.299l8.064-24.247c10.149-3.157 19.887-7.402 29.096-12.677v10.447c0 12.097 9.842 21.938 21.938 21.938 12.097 0 21.939-9.842 21.939-21.938v-25.745h3.068c6.724 0 12.194 5.47 12.194 12.193zm-18.963-250.97c4.116-2.445 9.358-1.79 12.743 1.597 3.387 3.386 4.043 8.626 1.597 12.743l-12.708 21.389c-6.789-8.502-14.503-16.232-22.989-23.04zm-263.348 43.438c-4.754-4.755-4.754-12.49 0-17.245l8.749-8.749c.536 1.497 1.204 2.963 2.041 4.371l15.989 26.912c-2.817 4.45-5.393 9.049-7.718 13.773zm36.053-7.749-12.684-21.348c-2.446-4.117-1.789-9.358 1.597-12.744s8.626-4.043 12.743-1.597l21.292 12.65c-8.508 6.824-16.201 14.569-22.948 23.039zm49.985-40.284c-4.81 2.371-9.505 5.013-14.068 7.93l-26.787-15.914c-1.408-.836-2.874-1.504-4.37-2.041l8.978-8.978c4.754-4.755 12.49-4.755 17.245 0z"/><path d="m324.223 179.999c0-37.618-30.605-68.223-68.223-68.223s-68.223 30.605-68.223 68.223 30.605 68.223 68.223 68.223 68.223-30.605 68.223-68.223zm-121.814 0c0-29.55 24.041-53.591 53.591-53.591s53.591 24.041 53.591 53.591-24.041 53.591-53.591 53.591-53.591-24.041-53.591-53.591z"/><path d="m263.316 210.453c0-4.041-3.275-7.316-7.316-7.316-12.758 0-23.137-10.379-23.137-23.137s10.379-23.137 23.137-23.137 23.137 10.379 23.137 23.137c0 3.478-.75 6.816-2.228 9.922-1.736 3.649-.186 8.014 3.463 9.75 3.645 1.736 8.013.187 9.75-3.462 2.421-5.086 3.648-10.54 3.648-16.21 0-20.826-16.943-37.77-37.77-37.77s-37.77 16.943-37.77 37.77 16.943 37.77 37.77 37.77c4.041-.001 7.316-3.277 7.316-7.317z"/><circle cx="256" cy="179.999" r="9.877"/><circle cx="170.832" cy="406.066" r="9.877"/><circle cx="202.355" cy="437.59" r="9.877"/><circle cx="107.025" cy="475.636" r="9.877"/><circle cx="404.975" cy="475.636" r="9.877"/><circle cx="107.025" cy="36.816" r="9.877"/><circle cx="404.975" cy="36.816" r="9.877"/><circle cx="244.172" cy="372.356" r="9.604"/></g></g></svg>